<?xml version="1.0" encoding="UTF-8"?>
<svg width="947px" height="1276px" viewBox="0 0 947 1276" version="1.1" xmlns="http://www.w3.org/2000/svg" xmlns:xlink="http://www.w3.org/1999/xlink">
    <!-- Generator: Sketch 58 (84663) - https://sketch.com -->
    <title>iStock-949119664</title>
    <desc>Created with Sketch.</desc>
    <defs>
        <path d="M194.719995,343.381325 C205.905328,353.561324 223.222661,352.753325 233.407994,341.573325 L348.659991,215.027995 C358.839991,203.843995 358.039991,186.521329 346.853325,176.338662 L161.109329,7.17466649 C149.92933,-3.00933326 132.602663,-2.19999995 122.423997,8.97999978 L7.16799982,135.52533 C-3.01599992,146.70533 -2.20533328,164.031996 8.97466644,174.215996 L194.719995,343.381325 Z" id="path-1"></path>
        <linearGradient x1="43.1353309%" y1="5.47707074%" x2="56.6265129%" y2="92.9741517%" id="linearGradient-3">
            <stop stop-color="#5454B5" offset="0%"></stop>
            <stop stop-color="#6DC7CC" offset="100%"></stop>
        </linearGradient>
    </defs>
    <g id="Page-1" stroke="none" stroke-width="1" fill="none" fill-rule="evenodd">
        <g id="iStock-949119664" transform="translate(-1.000000, 0.000000)">
            <g id="g10" transform="translate(474.333333, 638.500000) scale(-1, 1) rotate(-180.000000) translate(-474.333333, -638.500000) translate(0.333333, 0.000000)">
                <g id="g12" transform="translate(0.666667, 0.933333)">
                    <path d="M407.905313,0.986396775 C198.193319,0.986396775 28.1879895,28.5733294 28.1879895,62.5866619 C28.1879895,96.5999944 198.193319,124.173327 407.905313,124.173327 C617.618641,124.173327 787.626637,96.5999944 787.626637,62.5866619 C787.626637,28.5733294 617.618641,0.986396775 407.905313,0.986396775" id="path16" fill="#D8D8D8" fill-rule="nonzero"></path>
                    <path d="M76.854655,592.555982 C98.8959878,621.659981 153.64932,670.637313 182.750652,648.607981 C211.857318,626.566648 189.038652,583.127982 166.998653,554.025316 C152.023986,534.241317 97.0906545,457.930652 59.1826554,431.635986 C49.243989,424.735986 26.3199896,413.60132 11.2613233,425.014653 C-3.80134301,436.414653 0.575990211,461.542652 4.64532344,472.931985 C20.0919897,516.251984 61.9759887,572.907982 76.854655,592.555982" id="path18" fill="#F4F4F4" fill-rule="nonzero"></path>
                    <path d="M381.833314,86.2666613 C381.833314,38.7999958 156.214653,38.7999958 156.214653,86.2666613 C156.214653,133.733327 206.723985,172.219992 269.025317,172.219992 C331.329315,172.219992 381.833314,133.733327 381.833314,86.2666613" id="path20" fill="#FFFFFF" fill-rule="nonzero"></path>
                    <path d="M663.167974,86.2666613 C663.167974,38.7999958 437.550646,38.7999958 437.550646,86.2666613 C437.550646,133.733327 488.055978,172.219992 550.358643,172.219992 C612.659975,172.219992 663.167974,133.733327 663.167974,86.2666613" id="path22" fill="#FFFFFF" fill-rule="nonzero"></path>
                    <path d="M297.106649,222.257325 L236.126651,168.507993 C249.271984,161.063993 265.963984,153.605326 281.999983,148.523993 C309.277316,139.88666 335.995982,136.639993 359.083981,138.14666 L370.666648,205.581325 L297.106649,222.257325" id="path24" fill="#EAEAEA" fill-rule="nonzero"></path>
                    <path d="M523.559977,222.257325 L584.142642,168.297326 C570.998643,160.855993 554.703976,153.605326 538.667977,148.523993 C511.389311,139.88666 483.142645,136.279993 460.054645,137.789327 L450.001312,205.581325 L523.559977,222.257325" id="path26" fill="#EAEAEA" fill-rule="nonzero"></path>
                    <path d="M474.865312,1263.58663 C425.45998,1196.8533 393.901314,1089.12397 389.43598,1041.3613 C389.43598,1041.3613 412.917313,1040.5773 415.19598,1041.39864 C442.957312,1166.3173 518.425311,1224.54663 523.042644,1238.4933 C527.663977,1252.42663 521.661311,1268.06663 509.638644,1273.4133 C497.621311,1278.7733 483.601311,1275.38663 474.865312,1263.58663" id="path28" fill="#FFFFFF" fill-rule="nonzero"></path>
                    <path d="M690.999973,824.582643 C690.999973,981.471972 565.462643,1108.39997 408.573313,1108.39997 L407.241313,1108.39997 C250.347984,1108.39997 120.333321,981.471972 120.333321,824.582643 C120.333321,726.554645 120.333321,432.469319 120.333321,432.469319 C120.333321,275.57999 250.347984,148.399993 407.241313,148.399993 L408.573313,148.399993 C565.462643,148.399993 690.999973,275.57999 690.999973,432.469319 C690.999973,432.469319 690.999973,726.554645 690.999973,824.582643" id="path30" fill="#FFFFFF" fill-rule="nonzero"></path>
                    <path d="M602.355975,876.094642 C602.355975,815.838643 506.091978,766.986644 387.343981,766.986644 C268.59865,766.986644 172.334653,815.838643 172.334653,876.094642 C172.334653,936.35464 268.59865,985.206639 387.343981,985.206639 C506.091978,985.206639 602.355975,936.35464 602.355975,876.094642" id="path32" fill="#3F3F3F" fill-rule="nonzero"></path>
                    <g id="g34" transform="translate(590.599975, 310.933322)">
                        <g id="g36-Clipped">
                            <mask id="mask-2" fill="white">
                                <use xlink:href="#path-1"></use>
                            </mask>
                            <g id="path38"></g>
                            <g id="g36" mask="url(#mask-2)" fill="url(#linearGradient-3)" fill-rule="nonzero">
                                <path d="M194.719995,343.381325 C205.905328,353.561324 223.222661,352.753325 233.407994,341.573325 L348.659991,215.027995 C358.839991,203.843995 358.039991,186.521329 346.853325,176.338662 L161.109329,7.17466649 C149.92933,-3.00933326 132.602663,-2.19999995 122.423997,8.97999978 L7.16799982,135.52533 C-3.01599992,146.70533 -2.20533328,164.031996 8.97466644,174.215996 L194.719995,343.381325" id="path48"></path>
                            </g>
                        </g>
                    </g>
                    <polyline id="path50" fill="#FFFFFF" fill-rule="nonzero" points="842.759969 609.555982 934.458634 508.873317 728.535972 321.443989 600.981309 461.498652 771.745304 616.897315 842.759969 609.555982"></polyline>
                    <path d="M628.593308,428.383986 C631.387974,430.927986 635.715974,430.733319 638.265308,427.934653 L695.63864,364.935988 C698.183973,362.145321 697.978639,357.814655 695.187973,355.263988 L688.095973,348.809321 C685.299973,346.259988 680.96664,346.463988 678.41864,349.259988 L621.049308,412.251986 C618.505308,415.050653 618.705308,419.378653 621.499975,421.926653 L628.593308,428.383986" id="path52" fill="#3F3F3F" fill-rule="nonzero"></path>
                    <path d="M643.369307,374.962654 C637.562641,381.345321 635.521308,389.535987 637.510641,395.86932 L630.835974,403.199987 C625.186641,393.271987 627.199975,379.159987 636.629308,368.814654 C646.045307,358.467988 659.91064,355.146655 670.319973,359.847988 L663.643974,367.177321 C657.155974,365.785321 649.187974,368.579988 643.369307,374.962654" id="path54" fill="#3F3F3F" fill-rule="nonzero"></path>
                    <polygon id="path56" fill="#D8D8D8" fill-rule="nonzero" points="842.759969 609.555982 807.033303 577.014649 771.745304 616.897315"></polygon>
                    <path d="M669.607973,535.763983 C651.109307,567.238649 626.714641,636.530648 658.17864,655.033314 C689.65464,673.533313 721.107972,635.873314 739.605305,604.399982 C752.183971,583.011982 801.774637,503.127984 811.626637,458.055985 C814.214637,446.237319 815.76397,420.80132 799.470637,411.231987 C783.189304,401.655987 761.627971,415.28532 752.650638,423.390653 C718.498639,454.191985 682.097307,514.517317 669.607973,535.763983" id="path58" fill="#F4F4F4" fill-rule="nonzero"></path>
                    <path d="M448.597312,893.190641 C448.638646,897.041308 451.797312,900.134641 455.643979,900.094641 L461.882645,900.031974 C465.733312,899.990641 468.819979,896.839974 468.786645,892.982641 L468.719979,886.751975 C468.685312,882.902641 465.526645,879.811975 461.674645,879.846641 L455.437312,879.913308 C451.585312,879.950641 448.494646,883.101308 448.538646,886.957308 L448.597312,893.190641" id="path60" fill="#00FFF8" fill-rule="nonzero"></path>
                    <path d="M474.511978,892.727974 C474.550645,896.587974 477.701312,899.674641 481.553312,899.634641 L487.786645,899.574641 C491.638645,899.535974 494.729311,896.375974 494.693311,892.525308 L494.629311,886.291975 C494.589311,882.439975 491.434645,879.349308 487.583978,879.389308 L481.350645,879.450641 C477.498645,879.487975 474.407978,882.645308 474.443978,886.502641 L474.511978,892.727974" id="path62" fill="#00FFF8" fill-rule="nonzero"></path>
                    <path d="M428.31198,871.077308 C428.353313,874.927975 431.507979,878.023975 435.359979,877.981308 L441.595979,877.917308 C445.447979,877.877308 448.538646,874.725308 448.498646,870.873308 L448.430646,864.641309 C448.394646,860.785309 445.241312,857.698642 441.389313,857.735975 L435.153313,857.797309 C431.305313,857.838642 428.213313,860.989309 428.249313,864.849309 L428.31198,871.077308" id="path64" fill="#00FFF8" fill-rule="nonzero"></path>
                    <path d="M494.342645,870.438642 C494.382645,874.293308 497.539978,877.383975 501.391978,877.341308 L507.619978,877.279975 C511.474644,877.238642 514.563977,874.087975 514.527977,870.234642 L514.465311,864.001309 C514.423977,860.147975 511.265311,857.055975 507.414644,857.095975 L501.185311,857.159975 C497.333311,857.202642 494.238645,860.354642 494.281311,864.205309 L494.342645,870.438642" id="path66" fill="#00FFF8" fill-rule="nonzero"></path>
                    <path d="M255.305317,894.815974 C255.343984,898.667974 258.495984,901.758641 262.347984,901.721308 L268.583984,901.659974 C272.441317,901.615974 275.52665,898.463974 275.485317,894.611974 L275.42265,888.379975 C275.383983,884.527975 272.23065,881.433308 268.379984,881.473308 L262.14665,881.538641 C258.291984,881.574641 255.205317,884.730641 255.242651,888.583975 L255.305317,894.815974" id="path68" fill="#00FFF8" fill-rule="nonzero"></path>
                    <path d="M281.213317,894.357308 C281.25065,898.210641 284.405316,901.303974 288.25865,901.259974 L294.491983,901.199974 C298.347983,901.159974 301.434649,898.005308 301.397316,894.151974 L301.333316,887.921308 C301.295983,884.069308 298.137316,880.978641 294.289316,881.011975 L288.04665,881.078641 C284.199983,881.115975 281.111983,884.271975 281.149317,888.121308 L281.213317,894.357308" id="path70" fill="#00FFF8" fill-rule="nonzero"></path>
                    <path d="M235.023984,872.703975 C235.058651,876.558642 238.205318,879.649308 242.062651,879.607975 L248.302651,879.543975 C252.150651,879.506641 255.243984,876.347975 255.202651,872.499975 L255.138651,866.266642 C255.101317,862.414642 251.946651,859.322642 248.095984,859.363975 L241.858651,859.425309 C238.006651,859.465309 234.917318,862.621309 234.955984,866.473308 L235.023984,872.703975" id="path72" fill="#00FFF8" fill-rule="nonzero"></path>
                    <path d="M301.047983,872.066642 C301.083983,875.918642 304.242649,879.010641 308.093316,878.971975 L314.329316,878.905308 C318.182649,878.867975 321.267982,875.711975 321.226649,871.863975 L321.170649,865.627975 C321.133316,861.775975 317.974649,858.683975 314.122649,858.725309 L307.886649,858.789309 C304.034649,858.826642 300.945316,861.979975 300.982649,865.830642 L301.047983,872.066642" id="path74" fill="#00FFF8" fill-rule="nonzero"></path>
                    <polyline id="path76" fill="#78C2C5" fill-rule="nonzero" points="458.925312 496.562651 407.361313 496.562651 407.361313 548.129316 352.577315 548.129316 352.577315 496.562651 301.010649 496.562651 301.010649 441.778652 352.577315 441.778652 352.577315 390.21332 407.361313 390.21332 407.361313 441.778652 458.925312 441.778652 458.925312 496.562651"></polyline>
                    <path d="M217.999985,475.386652 L219.563985,473.829318 C245.657317,453.722652 283.221316,458.602652 303.333316,484.710651 L287.557316,496.866651 C274.385317,479.755985 249.895984,476.358652 232.574651,488.926651 C228.127985,494.311984 206.645318,520.259984 187.435986,541.987983 L174.687986,526.391984 C195.070652,503.183984 217.661318,475.745318 217.999985,475.386652" id="path78" fill="#D6D6D6" fill-rule="nonzero"></path>
                    <path d="M334.958649,623.729315 L333.033315,624.823981 C332.570649,625.097315 303.365316,638.553314 276.999983,651.546647 L264.043984,635.699981 C288.995983,623.263981 317.574649,610.042648 323.677315,607.279982 C340.271982,593.749315 343.261315,569.206649 330.083982,552.099983 L345.854648,539.947983 C365.951981,566.067983 361.074648,603.639982 334.958649,623.729315" id="path80" fill="#D6D6D6" fill-rule="nonzero"></path>
                    <path d="M242.915984,669.345313 C213.066652,687.026646 179.019986,682.321313 160.143986,657.78798 L141.918653,634.115981 C123.143987,609.746648 127.243987,575.566649 151.922653,551.14265 C157.89732,545.20665 166.095986,536.175983 174.687986,526.391984 L187.435986,541.987983 C179.361319,551.12265 171.685319,559.517316 165.849319,565.314649 C151.242653,579.815982 143.04532,602.957315 157.686653,621.969315 L175.921319,645.631981 C190.546652,664.65198 215.687985,662.386647 232.763984,652.25998 C240.166651,647.849314 251.659984,641.871981 264.043984,635.699981 L276.999983,651.546647 C263.467984,658.217314 250.682651,664.76398 242.915984,669.345313" id="path82" fill="#3F3F3F" fill-rule="nonzero"></path>
                    <path d="M303.917316,503.206651 C313.009316,496.199984 314.690649,483.159985 307.694649,474.066652 C300.697316,464.982652 287.669316,463.277319 278.571983,470.285318 C269.483983,477.285318 267.779984,490.331985 274.777317,499.418651 C281.77465,508.505317 294.833316,510.205317 303.917316,503.206651" id="path84" fill="#3F3F3F" fill-rule="nonzero"></path>
                    <path d="M352.502648,566.314649 C361.593315,559.318649 363.294648,546.27465 356.297315,537.189317 C349.289315,528.09065 336.250648,526.393317 327.159982,533.389317 C318.066649,540.39465 316.366649,553.43865 323.358649,562.533316 C330.358649,571.621316 343.405315,573.323982 352.502648,566.314649" id="path86" fill="#3F3F3F" fill-rule="nonzero"></path>
                    <path d="M92.5013212,724.319979 C92.5013212,689.73598 113.605321,656.69598 152.47732,629.649314 C158.91332,625.170648 172.673319,644.879981 167.171986,648.651981 C134.327987,671.16398 116.501321,697.574646 116.501321,724.319979 C116.501321,731.779979 117.882654,738.841312 120.214654,745.461311 L120.214654,790.810644 C102.009321,770.207978 92.5013212,747.566645 92.5013212,724.319979" id="path88" fill="#3F3F3F" fill-rule="nonzero"></path>
                    <path d="M690.999973,789.95731 L690.999973,743.342645 C692.967973,737.063978 693.979973,730.718645 693.979973,724.319979 C693.979973,692.078646 668.745307,667.01198 647.574641,651.659981 C616.145308,628.870648 571.985309,611.114648 519.866644,600.315982 L524.73731,576.815982 C580.157309,588.298649 627.505308,607.461315 661.66264,632.230648 C698.506639,658.946647 717.979972,690.790646 717.979972,724.319979 C717.979972,747.078645 708.662639,769.625311 690.999973,789.95731" id="path90" fill="#3F3F3F" fill-rule="nonzero"></path>
                    <path d="M539.34931,536.38665 C513.330644,525.233317 483.189311,537.28665 472.030645,563.303983 C460.883979,589.314649 472.945312,619.441315 498.963978,630.594648 C524.983977,641.750647 555.107976,629.707981 566.255976,603.697315 C577.411976,577.681316 565.370643,547.539983 539.34931,536.38665" id="path92" fill="#3F3F3F" fill-rule="nonzero"></path>
                    <path d="M534.063977,548.71465 C514.854644,540.481317 492.598645,549.37865 484.362645,568.587983 C476.133312,587.789315 485.035978,610.033315 504.246644,618.266648 C523.45731,626.502648 545.69731,617.611981 553.92931,598.409315 C562.16531,579.201316 553.274643,556.95065 534.063977,548.71465" id="path94" fill="#D6D6D6" fill-rule="nonzero"></path>
                    <path d="M527.083977,564.990649 C516.865311,560.610649 505.021311,565.342649 500.638644,575.563982 C496.254644,585.787982 500.999978,597.621315 511.217311,602.002648 C521.426644,606.378648 533.267977,601.654648 537.651977,591.430649 C542.03331,581.209316 537.29331,569.367983 527.083977,564.990649" id="path96" fill="#FFFFFF" fill-rule="nonzero"></path>
                </g>
            </g>
        </g>
    </g>
</svg>